<svg width="46" height="32" viewBox="0 0 46 32" fill="none" xmlns="http://www.w3.org/2000/svg">
<path d="M0 0H46V25.8H44.275C44.275 21.9515 40.917 18.8125 36.8 18.8125C33.787 18.8125 31.234 20.511 30.038 22.919C29.463 22.704 28.842 22.575 28.175 22.575C25.921 22.575 24.035 23.9295 23.322 25.8H0V0ZM19.251 6.6865C19.113 7.009 19.021 7.353 18.998 7.697C18.975 8.041 18.975 8.4065 19.021 8.772L19.067 8.944C19.09 9.073 19.113 9.245 19.182 9.4385C19.228 9.6535 19.32 9.8685 19.412 10.105C19.481 10.3415 19.619 10.578 19.757 10.8145C19.918 11.0725 20.102 11.2875 20.286 11.481C20.47 11.6745 20.7 11.8465 20.999 11.9755C21.275 12.1045 21.574 12.169 21.919 12.169C22.241 12.169 22.54 12.1045 22.816 11.9755C23.092 11.8465 23.322 11.6745 23.506 11.5025C23.713 11.309 23.874 11.0725 24.012 10.8145C24.173 10.5565 24.288 10.32 24.38 10.105C24.472 9.89 24.541 9.675 24.587 9.4385C24.656 9.202 24.679 9.0515 24.702 8.9655C24.725 8.8795 24.725 8.815 24.725 8.772C24.84 8.1485 24.794 7.568 24.633 7.009C24.472 6.45 24.15 5.977 23.69 5.59C23.207 5.203 22.609 5.0095 21.873 5.0095C21.436 5.0095 21.045 5.074 20.677 5.2245C20.332 5.375 20.033 5.5685 19.803 5.8265C19.596 6.063 19.412 6.364 19.251 6.6865ZM29.555 19.6725V17.2215C29.555 16.512 29.325 15.8025 28.888 15.1145C28.451 14.4265 27.853 13.846 27.117 13.416C26.381 12.9645 25.599 12.7495 24.771 12.7495L21.919 14.5555L18.975 12.7925C18.124 12.7925 17.319 13.0075 16.583 13.4375C15.87 13.8675 15.295 14.4265 14.881 15.093C14.467 15.781 14.26 16.4905 14.26 17.2215V19.6725L14.674 19.78C14.95 19.866 15.341 19.952 15.847 20.081C16.376 20.1885 16.928 20.296 17.549 20.4035C18.147 20.511 18.86 20.597 19.642 20.683C20.424 20.7475 21.183 20.7905 21.919 20.7905C22.609 20.7905 23.368 20.7475 24.173 20.683C24.955 20.597 25.645 20.511 26.22 20.4035C26.795 20.3175 27.37 20.1885 27.968 20.0595L29.118 19.8015C29.302 19.7585 29.44 19.7155 29.555 19.6725ZM36.8 19.8875C40.296 19.8875 43.125 22.532 43.125 25.8C43.125 29.068 40.296 31.7125 36.8 31.7125C35.121 31.7125 33.626 31.0675 32.499 30.057C33.2484 28.9982 33.5191 27.7051 33.2519 26.4603C32.9847 25.2155 32.2014 24.1202 31.073 23.4135C32.062 21.3495 34.224 19.8875 36.8 19.8875ZM24.15 27.4125C24.15 25.3485 25.967 23.65 28.175 23.65C30.383 23.65 32.2 25.3485 32.2 27.4125C32.2 29.4765 30.383 31.175 28.175 31.175C25.967 31.175 24.15 29.4765 24.15 27.4125Z" fill="white"/>
</svg>
